<?xml version="1.0" encoding="UTF-8"?>
<svg width="551px" height="229px" viewBox="0 0 551 229" version="1.1" xmlns="http://www.w3.org/2000/svg" xmlns:xlink="http://www.w3.org/1999/xlink">
    <!-- Generator: Sketch 48.2 (47327) - http://www.bohemiancoding.com/sketch -->
    <title>Logo_White_2018</title>
    <desc>Created with Sketch.</desc>
    <defs></defs>
    <g id="Page-1" stroke="none" stroke-width="1" fill="none" fill-rule="evenodd">
        <g id="Logo_White_2018">
            <g id="Group" transform="translate(140.000000, 170.000000)" fill="#FFFFFF" fill-rule="nonzero">
                <path d="M0.4,50.6 C0.4,31.7 27.1,29.4 27.1,16.3 C27.1,10.8 23.1,7.4 17.4,7.4 C10.3,7.4 6.3,14.5 6.3,14.5 L1,10.9 C1,10.9 5.9,0.8 18.1,0.8 C27.9,0.8 35.1,6.9 35.1,16 C35.1,33 8.8,35.8 8.7,48.5 L30.6,48.5 L30.6,41.4 L37.2,41.4 L37.2,54.6 L0.8,54.6 C0.5,53.2 0.4,51.9 0.4,50.6 Z" id="XMLID_15581_"></path>
                <path d="M45.8,28.1 C45.8,12.9 50.4,0.8 64.8,0.8 C79.1,0.8 83.8,12.9 83.8,28.1 C83.8,43.4 79.1,55.6 64.8,55.6 C50.5,55.5 45.8,43.4 45.8,28.1 Z M76.2,28.1 C76.2,16.5 73.7,7.4 64.9,7.4 C56.1,7.4 53.6,16.6 53.6,28.1 C53.6,39.8 56,48.9 64.9,48.9 C73.6,48.9 76.2,39.8 76.2,28.1 Z" id="XMLID_15583_"></path>
                <path d="M92.4,48.5 L104.3,48.5 L104.3,14 C104.3,12.3 104.4,10.8 104.4,10.8 L104.2,10.8 C104.2,10.8 103.6,11.9 101.6,13.8 L96.6,18.7 L92,14 L104.9,1.7 L111.6,1.7 L111.6,48.5 L123.3,48.5 L123.3,54.7 L92.4,54.7 L92.4,48.5 Z" id="XMLID_15586_"></path>
                <path d="M137.1,25.9 L137.1,25.7 C137.1,25.7 130.6,22.3 130.6,14.9 C130.6,7.5 136.5,0.7 147.1,0.7 C157.2,0.7 163.7,6.8 163.7,15 C163.7,22.8 157.3,27.6 157.3,27.6 L157.3,27.7 C162.1,30.5 165.2,34.2 165.2,39.9 C165.2,48.2 157.7,55.4 146.9,55.4 C136.9,55.4 128.4,49.2 128.4,39.3 C128.4,30.8 137.1,25.9 137.1,25.9 Z M146.8,48.7 C152.4,48.7 157.5,45 157.5,39.8 C157.5,35.1 153.5,33.1 148.6,31.1 C146.6,30.3 143.7,29.2 143.1,29.2 C141.2,29.2 135.9,33.5 135.9,39.2 C135.9,45 141,48.7 146.8,48.7 Z M150.7,24.7 C152.5,24.7 156.3,20.3 156.3,15.5 C156.3,10.6 152.4,7.5 147,7.5 C141.2,7.5 137.8,10.8 137.8,15 C137.8,19.6 141.8,21.4 146.5,23.3 C147.6,23.9 149.8,24.7 150.7,24.7 Z" id="Shape"></path>
            </g>
            <path d="M340.3,202 C340.8,199.9 339.7,198.6 338.3,197.1 C334.5,193 330.9,188.7 327.7,184.1 C320.2,173.6 314.7,162.2 310.9,150 C308.7,143 307.3,135.7 306.4,128.4 C305.6,121.2 305.5,114.1 305.9,106.9 C306.3,98.4 308,90 310.4,81.8 C312.5,74.5 315.3,67.6 318.7,60.8 C320,58.1 321.4,55.5 323.1,53 C323.6,52.3 323.9,51.4 323.8,50.4 C323.7,49.6 323.9,48.8 323.8,48 C323.1,44.1 325,41.3 327.3,38.5 C329.9,35.5 332.4,32.4 335.1,29.4 C336.6,27.7 338.1,25.9 339.8,24.5 C341.9,22.7 343.8,20.8 346,19.1 C350.3,15.8 354.6,12.5 359.2,9.6 C364.4,6.4 369.5,3.3 375.2,0.9 C376.1,0.5 376.6,0.7 377,1.5 C378.1,3.9 379.2,6.4 380.3,8.8 C380.6,9.5 380.5,9.7 379.8,10 C370.2,14.2 361.4,19.7 353.5,26.3 C349.4,29.7 345.6,33.4 342,37.3 C337.2,42.5 332.8,48 329.1,53.9 C322.2,64.6 317.4,76.2 314.5,88.6 C313.1,94.6 312.2,100.7 311.8,106.9 C311.5,111.5 311.4,116 311.6,120.6 C312.3,133.8 315.2,146.6 320.3,158.9 C324.9,169.7 331,179.7 338.6,188.6 C347.9,199.6 359,208.6 371.7,215.5 C374.5,217 377.3,218.5 380.3,219.7 C380.9,220 381.3,220.2 380.9,221 C379.8,223.3 378.8,225.6 377.8,227.9 C377.4,228.8 377,228.9 376.1,228.5 C368.6,225.3 361.6,221.1 354.9,216.5 C351.4,214.1 348,211.7 345,208.8 C344.2,208 343.2,207.3 342.3,206.5 C340.6,205.5 339.9,204 340.3,202 Z" id="XMLID_15576_" fill="#00BD5C"></path>
            <path d="M545,122.4 C545.3,119.5 545.4,116.7 545.3,113.8 C545.1,105.5 544.2,97.2 542.3,89.1 C539.9,79.2 536.3,69.7 531.5,60.7 C529.9,57.7 528,54.9 526.1,52 C523.8,48.4 521.3,45 518.5,41.8 C514.9,37.6 511.2,33.6 506.9,29.9 C502.8,26.4 498.7,23.1 494.3,20.1 C489.6,16.9 484.6,14.1 479.5,11.5 C476.5,10 476.8,10.9 478.3,7.7 C479.2,5.9 480.2,4.1 480.9,2.3 C481.3,1.3 481.5,1.5 482.2,1.8 C486,3.6 489.7,5.5 493.3,7.6 C503.1,13.4 512,20.4 519.9,28.6 C522,30.8 523.9,33.1 526,35.3 C527.4,36.8 527.5,38.6 527.1,40.3 C526.6,42.8 527.7,44.6 529,46.4 C537.9,58.8 544,72.4 547.6,87.1 C549.1,93.5 550.1,99.9 550.6,106.4 C551,111.6 551.1,116.8 550.8,122 C550.2,132.5 548.3,142.7 544.9,152.7 C541.1,163.9 535.9,174.4 529,184 C528.6,184.5 528.1,185 528.2,185.9 C529.2,190.4 526.8,193.6 523.9,196.7 C518.4,202.6 512.6,208.3 506.1,213.2 C504.8,214.2 503.6,215.9 502.2,215.8 C501.2,215.7 500.3,213.7 499.4,212.5 C498.7,211.5 498.1,210.5 497.3,209.5 C496.6,208.7 496.9,208.3 497.6,207.7 C500.7,205.4 503.7,203 506.5,200.5 C508.4,198.8 510.3,197.2 512.1,195.3 C516.9,190.3 521.4,185.1 525.2,179.4 C532.3,168.9 537.7,157.5 541,145.2 C542.7,138.8 544,132.4 544.5,125.8 C544.9,124.6 545,123.5 545,122.4 Z" id="XMLID_15577_" fill="#2F6AE0"></path>
            <path d="M476.3,205.8 C481,203.6 485.3,200.9 489.4,197.8 C492.8,195.3 496,192.6 499.2,189.9 C501.6,187.8 503.6,185.3 505.9,183.2 C507.4,181.9 508.6,180.2 509.9,178.6 C510.3,178.1 510.4,177.7 509.5,177.2 C508.8,176.8 507.5,176.4 508.8,174.7 C512.2,170.4 515.2,165.8 517.7,160.9 C518.7,158.9 519.8,156.8 520.8,154.8 C521.1,154.2 521.3,154 522,154.3 C523.7,155.1 525.5,155.8 527.2,156.4 C528,156.7 528.1,157.1 527.7,157.9 C523.5,167.1 518.2,175.6 511.6,183.3 C504.6,191.6 496.5,198.7 487.3,204.6 C475.5,212.1 462.7,217.2 449,219.9 C440.1,221.7 431.2,222.1 422.2,221.7 C410.2,221.2 398.6,218.5 387.4,214.2 C379.3,211.1 371.9,206.9 364.8,202.1 C361.4,199.8 358.2,197.1 355.1,194.4 C353,192.5 350.9,190.7 349,188.6 C342.6,181.7 336.8,174.3 332.4,165.9 C331.6,164.3 330.8,162.7 329.8,161.1 C329.3,160.3 329.5,160 330.2,159.6 C332,158.8 333.8,157.9 335.7,157.1 C336.4,156.8 336.7,157.1 337.1,157.7 C338.6,160.6 340.1,163.6 341.9,166.4 C345.3,171.8 349,176.9 353.4,181.5 C356.1,184.3 358.7,187.2 361.8,189.6 C362.6,190.3 362.9,190.9 362,191.6 C360.8,192.6 360.9,193.4 362.1,194.3 C367.6,198.6 373.4,202.4 379.6,205.6 C387.6,209.7 396,212.8 404.8,214.8 C409.6,215.8 414.4,216.5 419.2,217 C424.4,217.5 429.6,217.5 434.7,217.2 C446.9,216.4 458.8,213.7 470,208.8 C471.5,208.2 472.9,207.4 474.4,206.7 C475,206.5 475.5,206.3 476.3,205.8 Z" id="XMLID_15578_" fill="#FDB632"></path>
            <path d="M426,7.3 C446.5,7.2 464,11.7 480.3,20.3 C491.3,26.2 500.9,33.9 509.3,43 C516.7,51.1 522.6,60.1 527.2,70 C527.8,71.3 528.1,72.2 526.2,72.7 C524.9,73.1 523.5,73.6 522.3,74.3 C521,75.1 520.5,74.5 520,73.4 C519.1,71.6 518.3,69.8 517.3,68 C514.7,63 511.5,58.4 508,54 C505.7,51.1 503.2,48.4 500.5,45.8 C497.7,43.1 495.1,40.3 492,37.9 C491.4,37.5 491.3,37 491.9,36.4 C492.2,36.1 492.6,35.8 492.8,35.5 C493.2,34.9 493.5,34.6 492.6,33.8 C486.3,28.8 479.4,24.8 472.1,21.4 C463.9,17.5 455.3,15 446.4,13.3 C438.6,11.9 430.7,11.4 422.8,11.8 C410.9,12.4 399.4,14.9 388.3,19.3 C378.7,23.2 369.9,28.3 361.9,34.8 C352,42.8 343.8,52.3 337.3,63.1 C337,63.7 336.9,64 337.7,64.4 C340,65.6 340,65.7 338.8,67.9 C337.9,69.7 336.8,71.5 336,73.4 C335.6,74.3 335.3,74.4 334.5,74 C332.8,73.2 331,72.6 329.2,71.8 C328.3,71.4 328.3,71.1 328.6,70.3 C329.6,67.9 330.7,65.6 332,63.3 C334.2,59.5 336.5,55.7 339.1,52.1 C341.5,48.9 344,45.8 346.6,42.8 C348.6,40.5 350.7,38.2 353,36.2 C358.6,31.2 364.6,26.5 371.1,22.7 C374.2,20.8 377.4,19 380.7,17.5 C389.1,13.7 397.8,10.8 406.9,9 C413.9,7.9 420.9,7.2 426,7.3 Z" id="XMLID_15579_" fill="#F05926"></path>
            <path d="M305.4,69.9 L304.7,69.9 L292.3,69.9 L289.9,76.4 L293.1,76.4 C293.5,76.4 293.9,76.4 294.2,76.4 L295.7,76.4 C296.2,76.6 296.1,77.2 295.9,77.8 C294.8,81.7 294,85.6 293.2,89.5 C292.1,95.2 291.2,101 291.1,106.8 C290.9,113.9 290.7,121 291.5,128 C292.3,134.9 293.4,141.8 295.2,148.6 C295.4,149.4 295.2,149.5 294.5,149.6 C293.2,149.9 291.9,149.8 290.6,149.9 C289.7,150 289.2,150.3 289.6,151.4 C290.1,152.9 290.5,154.5 291,156 C291.3,156.9 291.1,157.3 290,157.2 C289.5,157.2 289,157.2 288.5,157.2 C194.2,157.2 95.2,157.2 0.9,157.2 L0.9,166.2 C37.4,166.2 78.6,166.2 115,166.3 C118.6,166.3 121.5,165.7 123.6,162.7 C124.4,161.5 125.6,161.3 127,161.3 C186.1,161.3 245.2,161.3 304.2,161.3 C304.8,161.3 305.5,161.3 306.3,161.3 C294.7,131.1 294.3,100.7 305.4,69.9 Z" id="XMLID_15591_" fill="#2F6AE0" fill-rule="nonzero"></path>
            <g id="XMLID_15592_" transform="translate(1.000000, 80.000000)" fill="#FFFFFF" fill-rule="nonzero">
                <polygon id="XMLID_15593_" points="0 60.5 8.4 60.5 8.4 8.6 0 8.6 0 1.3 26.5 1.3 26.5 8.6 18 8.6 18 30.7 53 30.7 53 8.6 44.5 8.6 44.5 1.3 71 1.3 71 8.6 62.6 8.6 62.6 60.5 71 60.5 71 67.8 44.5 67.8 44.5 60.5 53 60.5 53 38.5 18 38.5 18 60.5 26.5 60.5 26.5 67.8 0 67.8"></polygon>
                <path d="M77.1,60.5 L83.6,60.5 L105.1,1.3 L116,1.3 L137.5,60.5 L144,60.5 L144,67.8 L120.6,67.8 L120.6,60.5 L127.8,60.5 L122.5,45.7 L98.6,45.7 L93.3,60.5 L100.6,60.5 L100.6,67.8 L77.2,67.8 L77.2,60.5 L77.1,60.5 Z M120.1,38.2 L111.9,15.1 C110.9,12.4 110.8,10 110.8,10 L110.5,10 C110.5,10 110.2,12.4 109.4,15.1 L101.1,38.2 L120.1,38.2 Z" id="XMLID_15595_"></path>
                <path d="M182.7,0.2 C190.8,0.2 208.4,3.1 208.4,13.4 L208.4,21.5 L199.5,21.5 L199.5,16.3 C199.5,10.5 189.3,8.3 183,8.3 C168.6,8.3 157.9,18.8 157.9,33.8 C157.9,49.5 168.8,60.7 183.5,60.7 C188.3,60.7 200.3,59 200.3,52.9 L200.3,47.7 L209.2,47.7 L209.2,55.8 C209.2,65.6 192.3,68.9 182.9,68.9 C162.6,68.9 148,53.5 148,34.1 C148.2,14.7 163.2,0.2 182.7,0.2 Z" id="XMLID_15598_"></path>
                <path d="M219.8,60.5 L228.2,60.5 L228.2,8.6 L219.8,8.6 L219.8,1.3 L245.2,1.3 L245.2,8.6 L237.8,8.6 L237.8,29.5 L246.5,29.5 L261.2,8.6 L255,8.6 L255,1.3 L277.9,1.3 L277.9,8.6 L271.4,8.6 L253.9,32.6 L253.9,32.8 C253.9,32.8 255.8,33.6 257.7,37.2 L269.9,58 C271,59.8 272.3,60.4 274.7,60.4 L277.9,60.4 L277.9,67.7 L271.1,67.7 C265.5,67.7 263.8,66.4 261.7,62.7 L248.7,39.7 C247.6,37.8 246.2,37.1 243.4,37.1 L237.8,37.1 L237.8,60.4 L246.1,60.4 L246.1,67.7 L219.8,67.7 L219.8,60.5 Z" id="XMLID_15600_"></path>
            </g>
            <g id="XMLID_15602_" transform="translate(353.000000, 81.000000)" fill="#FFFFFF" fill-rule="nonzero">
                <polygon id="XMLID_15603_" points="16.2 59.7 24.8 59.7 24.8 8 8.8 8 8.8 18.4 0.4 18.4 0.4 0.2 58.7 0.2 58.7 18.4 50.3 18.4 50.3 8 34.3 8 34.3 59.7 42.9 59.7 42.9 67.1 16.1 67.1 16.1 59.7"></polygon>
                <path d="M65.1,59.7 L73.6,59.7 L77.9,7.5 L69.2,7.5 L69.2,0.2 L88.4,0.2 L105.8,40.9 C106.9,43.6 107.3,45.7 107.3,45.7 L107.5,45.7 C107.5,45.7 108,43.6 109,40.9 L126.4,0.2 L145.6,0.2 L145.6,7.5 L136.9,7.5 L141.2,59.7 L149.7,59.7 L149.7,67.1 L123.5,67.1 L123.5,59.7 L131.7,59.7 L128.6,19.7 C128.5,17.6 128.9,14.2 128.9,14.2 L128.6,14.2 C128.6,14.2 127.8,17.4 127.1,19.3 L111.5,54.5 L103,54.5 L87.4,19.3 C86.6,17.4 85.9,14.2 85.9,14.2 L85.6,14.2 C85.6,14.2 86,17.6 85.9,19.7 L82.8,59.7 L91,59.7 L91,67.1 L64.8,67.1 L64.8,59.7 L65.1,59.7 Z" id="XMLID_15605_"></path>
            </g>
        </g>
    </g>
</svg>